# xmcd
#
# Track frame offsets: 
#        150
#        13275
#        23550
#        35025
#        48925
#        63537
#        77405
#        92930
#        107775
#        122100
#        136587
#        148345
#        161700
#        180950
#        193120
#        210855
#        225687
#
# Disc length: 3259 seconds
#
# Revision: 0
# Processed by: cddbd v1.4PL0 Copyright (c) Steve Scherf et al.
# Submitted via: ExactAudioCopy v0.90b4
#
DISCID=e40cb911
DTITLE=Nocna Zmiana Bluesa - The Best Of The Blues Nightshift
DYEAR=1990
DGENRE=Blues
TTITLE0=Sweet Home Chicago
TTITLE1=I Feel So Good
TTITLE2=Blues Train
TTITLE3=One Scotch, One Bourbon, One Beer
TTITLE4=Love Bug
TTITLE5=Seventh Son
TTITLE6=Memphis Town
TTITLE7=Eyesight to the Blind
TTITLE8=Walk On
TTITLE9=Baby, Please, Don't Go
TTITLE10=San Fracisco Bay Blues
TTITLE11=Kansas City
TTITLE12=Georgia On My Mind
TTITLE13=Katarzyna Boogie
TTITLE14=Midnight Special
TTITLE15=Talk to Me, Baby
TTITLE16=Hooche Coochie Man
EXTD=
EXTT0=
EXTT1=
EXTT2=
EXTT3=
EXTT4=
EXTT5=
EXTT6=
EXTT7=
EXTT8=
EXTT9=
EXTT10=
EXTT11=
EXTT12=
EXTT13=
EXTT14=
EXTT15=
EXTT16=
PLAYORDER=
